<svg width="26" height="26" viewBox="0 0 26 26" fill="none" xmlns="http://www.w3.org/2000/svg">
<g id="290141_bag_case_handbag_purse_shopping_icon 1">
<path id="Vector" fill-rule="evenodd" clip-rule="evenodd" d="M22.88 25.0716H3.12004C1.97136 25.0716 1.04004 24.0888 1.04004 22.8768L3.12004 9.70793C3.4726 7.8193 4.5074 7.51313 5.65608 7.51313H7.03512C7.81928 3.70075 10.1931 0.928711 13 0.928711C15.807 0.928711 18.1808 3.70075 18.965 7.51313H20.344C21.4927 7.51313 22.5275 7.8193 22.88 9.70793L24.96 22.8768C24.96 24.0888 24.0287 25.0716 22.88 25.0716ZM13 2.02611C10.737 2.02611 8.81664 4.31859 8.10268 7.51313H17.8979C17.1834 4.31859 15.2636 2.02611 13 2.02611ZM21.84 9.70793C21.6799 8.96664 21.3424 8.61053 20.6076 8.61053H19.1371C19.201 9.14606 19.24 9.69421 19.24 10.2566C19.24 10.5595 19.0076 10.8053 18.72 10.8053C18.4325 10.8053 18.2 10.5595 18.2 10.2566C18.2 9.69312 18.1642 9.14222 18.0955 8.61053H7.90456C7.83644 9.14222 7.80004 9.69312 7.80004 10.2566C7.80004 10.5595 7.5676 10.8053 7.28004 10.8053C6.99248 10.8053 6.76004 10.5595 6.76004 10.2566C6.76004 9.69421 6.79904 9.14606 6.86248 8.61053H5.39192C4.65768 8.61053 4.32072 8.96664 4.16004 9.70793L2.08004 22.8768C2.08004 23.4825 2.54596 23.9742 3.12004 23.9742H22.88C23.4541 23.9742 23.92 23.4825 23.92 22.8768L21.84 9.70793Z" fill="#333232"/>
</g>
</svg>
